# xmcd
# 
# Track frame offsets:
#     150
#     21367
#     42643
#     67987
#     87737
#     111645
#     131704
#     148832
#     168609
#     190547
#     208765
#     229001
#     248704
# 
# Disc length: 3536
# 
# Revision: 4
# Processed by: cddbd v1.5.2PL0 Copyright (c) Steve Scherf et al.
# Submitted via: fre:ac v1.0.31
# 
DISCID=c80dce0d
DTITLE=Alex Capus - Léon and Louise [CD5]
DYEAR=2011
DGENRE=Hörbuch
TTITLE0=Fünfzehntes Kapitel 2
TTITLE1=Fünfzehntes Kapitel 3
TTITLE2=Fünfzehntes Kapitel 4
TTITLE3=Sechzehntes Kapitel 1
TTITLE4=Sechzehntes Kapitel 2
TTITLE5=Sechzehntes Kapitel 3
TTITLE6=Sechzehntes Kapitel 4
TTITLE7=Sechzehntes Kapitel 5
TTITLE8=Siebzehntes Kapitel 1
TTITLE9=Siebzehntes Kapitel 2
TTITLE10=Siebzehntes Kapitel 3
TTITLE11=Siebzehntes Kapitel 4
TTITLE12=Siebzehntes Kapitel 5
EXTD=YEAR: 2011
EXTT0=
EXTT1=
EXTT2=
EXTT3=
EXTT4=
EXTT5=
EXTT6=
EXTT7=
EXTT8=
EXTT9=
EXTT10=
EXTT11=
EXTT12=
PLAYORDER=
